<svg width="23" height="27" viewBox="0 0 23 27" fill="none" xmlns="http://www.w3.org/2000/svg">
<path d="M11.5 14.8333C6.16668 14.8333 4.83334 10.3893 4.83334 8.16667V2.83333L8.16668 5.5L11.5 1.5L14.8333 5.5L18.1667 2.83333V8.16667C18.1667 10.3893 16.8333 14.8333 11.5 14.8333ZM11.5 14.8333V25.5M11.5 25.5H12.8333M11.5 25.5H10.1667M12.8333 25.5C20.3 25.5 22.1667 19.2773 22.1667 16.1667C14.7 16.1667 12.8333 22.3893 12.8333 25.5ZM10.1667 25.5C2.70001 25.5 0.833344 19.2773 0.833344 16.1667C8.30001 16.1667 10.1667 22.3893 10.1667 25.5Z" stroke="#121212" stroke-width="1.5" stroke-linecap="round" stroke-linejoin="round"/>
</svg>
