<svg width="21" height="27" viewBox="0 0 21 27" fill="none" xmlns="http://www.w3.org/2000/svg">
<path fill-rule="evenodd" clip-rule="evenodd" d="M7.48366 3.52309C8.3432 2.66355 9.50899 2.18066 10.7246 2.18066C11.9401 2.18066 13.1059 2.66355 13.9655 3.52309C14.825 4.38263 15.3079 5.54842 15.3079 6.764V11.3473H6.14124V6.764C6.14124 5.54842 6.62412 4.38263 7.48366 3.52309ZM4.64124 11.3473V6.764C4.64124 5.1506 5.28216 3.60328 6.423 2.46243C7.56385 1.32158 9.11117 0.680664 10.7246 0.680664C12.338 0.680664 13.8853 1.32158 15.0261 2.46243C16.167 3.60328 16.8079 5.1506 16.8079 6.764V11.3473H17.3912C19.2782 11.3473 20.8079 12.877 20.8079 14.764V22.764C20.8079 24.651 19.2782 26.1807 17.3912 26.1807H4.0579C2.17093 26.1807 0.641235 24.651 0.641235 22.764V14.764C0.641235 12.877 2.17093 11.3473 4.0579 11.3473H4.64124ZM16.0579 12.8473H17.3912C18.4498 12.8473 19.3079 13.7055 19.3079 14.764V22.764C19.3079 23.8225 18.4498 24.6807 17.3912 24.6807H4.0579C2.99936 24.6807 2.14124 23.8225 2.14124 22.764V14.764C2.14124 13.7055 2.99936 12.8473 4.0579 12.8473H5.39124H16.0579ZM10.7246 18.1807C10.4024 18.1807 10.1412 18.4418 10.1412 18.764C10.1412 19.0862 10.4024 19.3473 10.7246 19.3473C11.0467 19.3473 11.3079 19.0862 11.3079 18.764C11.3079 18.4418 11.0467 18.1807 10.7246 18.1807ZM8.64124 18.764C8.64124 17.6134 9.57397 16.6807 10.7246 16.6807C11.8752 16.6807 12.8079 17.6134 12.8079 18.764C12.8079 19.9146 11.8752 20.8473 10.7246 20.8473C9.57397 20.8473 8.64124 19.9146 8.64124 18.764Z" fill="#121212"/>
</svg>
