<svg width="40" height="36" viewBox="0 0 40 36" fill="none" xmlns="http://www.w3.org/2000/svg">
<g clip-path="url(#clip0_1_4192)">
<path d="M10.4179 16.6993H5.51985C5.11028 16.6993 4.77825 17.0314 4.77825 17.441V20.3606C4.77825 20.7702 5.11028 21.1023 5.51985 21.1023H10.4179C10.8275 21.1023 11.1595 20.7702 11.1595 20.3606V17.441C11.1595 17.0314 10.8275 16.6993 10.4179 16.6993Z" fill="#121212"/>
<path d="M18.9088 16.6993H14.0108C13.6012 16.6993 13.2691 17.0314 13.2691 17.441V20.3606C13.2691 20.7702 13.6012 21.1023 14.0108 21.1023H18.9088C19.3184 21.1023 19.6504 20.7702 19.6504 20.3606V17.441C19.6504 17.0314 19.3184 16.6993 18.9088 16.6993Z" fill="#121212"/>
<path d="M27.4 16.6993H22.5019C22.0923 16.6993 21.7603 17.0314 21.7603 17.441V20.3606C21.7603 20.7702 22.0923 21.1023 22.5019 21.1023H27.4C27.8096 21.1023 28.1416 20.7702 28.1416 20.3606V17.441C28.1416 17.0314 27.8096 16.6993 27.4 16.6993Z" fill="#121212"/>
<path d="M10.4179 22.4996H5.51985C5.11028 22.4996 4.77825 22.8317 4.77825 23.2413V26.1609C4.77825 26.5705 5.11028 26.9026 5.51985 26.9026H10.4179C10.8275 26.9026 11.1595 26.5705 11.1595 26.1609V23.2413C11.1595 22.8317 10.8275 22.4996 10.4179 22.4996Z" fill="#121212"/>
<path d="M18.9088 22.4996H14.0108C13.6012 22.4996 13.2691 22.8317 13.2691 23.2413V26.1609C13.2691 26.5705 13.6012 26.9026 14.0108 26.9026H18.9088C19.3184 26.9026 19.6504 26.5705 19.6504 26.1609V23.2413C19.6504 22.8317 19.3184 22.4996 18.9088 22.4996Z" fill="#121212"/>
<path d="M18.9088 28.3002H14.0108C13.6012 28.3002 13.2691 28.6322 13.2691 29.0418V31.9615C13.2691 32.3711 13.6012 32.7031 14.0108 32.7031H18.9088C19.3184 32.7031 19.6504 32.3711 19.6504 31.9615V29.0418C19.6504 28.6322 19.3184 28.3002 18.9088 28.3002Z" fill="#121212"/>
<path d="M10.4179 28.3002H5.51985C5.11028 28.3002 4.77825 28.6322 4.77825 29.0418V31.9615C4.77825 32.3711 5.11028 32.7031 5.51985 32.7031H10.4179C10.8275 32.7031 11.1595 32.3711 11.1595 31.9615V29.0418C11.1595 28.6322 10.8275 28.3002 10.4179 28.3002Z" fill="#121212"/>
<path d="M30.2753 4.01038H29.4248V6.66175C29.4248 7.81034 28.4902 8.745 27.3415 8.745C26.1927 8.745 25.2583 7.81034 25.2583 6.66175V4.01038H22.1702V6.66175C22.1702 7.81034 21.2356 8.745 20.0871 8.745C18.9386 8.745 18.0037 7.81034 18.0037 6.66175V4.01038H14.9159V6.66175C14.9159 7.81034 13.9813 8.745 12.8325 8.745C11.6838 8.745 10.7494 7.81034 10.7494 6.66175V4.01038H7.66127V6.66175C7.66127 7.81034 6.72667 8.745 5.57815 8.745C4.42963 8.745 3.49479 7.81034 3.49479 6.66175V4.01038H2.64426C1.18405 4.01038 0 5.19426 0 6.65479V33.1163C0 34.5664 1.17523 35.7417 2.62522 35.7417H30.2944C31.7444 35.7417 32.9196 34.5664 32.9196 33.1163V6.65479C32.9196 5.19426 31.7355 4.01038 30.2753 4.01038ZM31.2497 33.0973C31.2497 33.6345 30.8126 34.0719 30.2756 34.0719H2.64426C2.10728 34.0719 1.66994 33.6347 1.66994 33.0973V15.3308H31.2494V33.0973H31.2497Z" fill="#121212"/>
<path d="M6.88902 1.569C6.88902 0.844984 6.30217 0.258057 5.57827 0.258057C4.85436 0.258057 4.26752 0.844984 4.26752 1.569V6.66155C4.26752 7.38556 4.85436 7.97249 5.57827 7.97249C6.30217 7.97249 6.88902 7.38556 6.88902 6.66155V1.569Z" fill="#121212"/>
<path d="M14.1434 1.569C14.1434 0.844984 13.5565 0.258057 12.8326 0.258057C12.1087 0.258057 11.5219 0.844984 11.5219 1.569V6.66155C11.5219 7.38556 12.1087 7.97249 12.8326 7.97249C13.5565 7.97249 14.1434 7.38556 14.1434 6.66155V1.569Z" fill="#121212"/>
<path d="M21.3977 1.569C21.3977 0.844984 20.8109 0.258057 20.087 0.258057C19.3631 0.258057 18.7762 0.844984 18.7762 1.569V6.66155C18.7762 7.38556 19.3631 7.97249 20.087 7.97249C20.8109 7.97249 21.3977 7.38556 21.3977 6.66155V1.569Z" fill="#121212"/>
<path d="M28.6521 1.569C28.6521 0.844984 28.0652 0.258057 27.3413 0.258057C26.6174 0.258057 26.0306 0.844984 26.0306 1.569V6.66155C26.0306 7.38556 26.6174 7.97249 27.3413 7.97249C28.0652 7.97249 28.6521 7.38556 28.6521 6.66155V1.569Z" fill="#121212"/>
<path d="M28.2154 32.1266L22.0847 25.9956C21.652 25.5629 21.652 24.8612 22.0847 24.4285L23.688 22.8251C24.1207 22.3924 24.8224 22.3924 25.2551 22.8251L28.9354 26.5057L36.5054 18.9353C36.9381 18.5025 37.6398 18.5025 38.0725 18.9353L39.6758 20.5386C40.1085 20.9714 40.1085 21.673 39.6758 22.1058L29.6554 32.1266C29.2578 32.5243 28.6133 32.5243 28.2159 32.1266H28.2154Z" fill="#1BA97F"/>
</g>
<defs>
<clipPath id="clip0_1_4192">
<rect width="40" height="35.4839" fill="white" transform="translate(0 0.258057)"/>
</clipPath>
</defs>
</svg>
