<svg width="28" height="28" viewBox="0 0 28 28" fill="none" xmlns="http://www.w3.org/2000/svg">
<path fill-rule="evenodd" clip-rule="evenodd" d="M5.72647 11.9142C5.72647 8.56339 8.44284 5.84701 11.7937 5.84701C15.1445 5.84701 17.8608 8.56339 17.8608 11.9142C17.8608 15.265 15.1445 17.9814 11.7937 17.9814C8.44284 17.9814 5.72647 15.265 5.72647 11.9142ZM11.7937 4.23163C7.55069 4.23163 4.11108 7.67123 4.11108 11.9142C4.11108 16.1572 7.55069 19.5968 11.7937 19.5968C13.6241 19.5968 15.305 18.9566 16.6247 17.888L22.0256 23.2889C22.341 23.6043 22.8524 23.6043 23.1678 23.2889C23.4832 22.9735 23.4832 22.4621 23.1678 22.1466L17.767 16.7458C18.8359 15.426 19.4762 13.7449 19.4762 11.9142C19.4762 7.67123 16.0366 4.23163 11.7937 4.23163Z" fill="#121212"/>
</svg>
