<svg width="135" height="30" viewBox="0 0 135 30" fill="none" xmlns="http://www.w3.org/2000/svg">
<g clip-path="url(#clip0_1_4214)">
<path d="M34.1378 11.5458C34.1378 11.1082 33.8723 10.8156 33.3142 10.6557C32.7831 10.4959 32.1721 10.3374 31.5219 10.1639C29.7553 9.71283 28.8788 8.88917 28.8788 7.69432C28.9181 5.79502 30.048 4.86569 32.2792 4.87924C34.4033 4.87924 35.5061 5.80856 35.6117 7.68077H34.5754C34.1907 7.68077 33.9251 7.49518 33.7517 7.14973C33.4456 6.63223 32.9023 6.38025 32.1179 6.38025C31.1615 6.3938 30.6833 6.75144 30.644 7.44234C30.644 8.01403 31.2144 8.42451 32.397 8.69003C33.0744 8.84988 33.791 9.04903 34.5483 9.31455C35.5576 9.66 36.0358 10.4037 35.9829 11.5458C35.8773 13.3123 34.6811 14.1888 32.397 14.1888C30.113 14.1888 28.7976 13.1931 28.7447 11.2274H30.537C30.6034 12.1838 31.2144 12.662 32.3957 12.662C33.577 12.662 34.1487 12.2908 34.1351 11.5471L34.1378 11.5458Z" fill="#121212"/>
<path d="M37.8161 5.02582H38.7319V10.6031C38.7319 11.9172 39.3158 12.5824 40.4713 12.5946C41.6269 12.6081 42.2108 11.9308 42.2108 10.6031V5.02582H44.0437V10.8158C44.0437 13.0335 42.7418 14.1891 40.4713 14.1891C38.2008 14.1891 36.8854 13.0999 36.8854 10.8158V5.99579C36.8854 5.50403 37.3108 5.02582 37.8148 5.02582H37.8161Z" fill="#121212"/>
<path d="M45.8506 5.02582H46.8463L50.5243 11.2277V5.02582H52.3437V14.0563H50.4187L46.7406 7.85445V14.0563H44.9212V5.99579C44.9212 5.47829 45.3331 5.02582 45.8506 5.02582Z" fill="#121212"/>
<path d="M54.2701 5.02582H55.2658L58.9439 11.2277V5.02582H60.7632V14.0563H58.8382L55.1602 7.85445V14.0563H53.3408V5.99579C53.3408 5.47829 53.7526 5.02582 54.2701 5.02582Z" fill="#121212"/>
<path d="M64.9208 14.0548V10.6816L61.6546 5.02429H63.9129L65.865 8.91501L67.3918 5.56888C67.5638 5.20989 67.8429 5.02429 68.2412 5.02429H69.7544L66.793 10.6816V14.0548H64.9208Z" fill="#121212"/>
<path d="M80.4383 10.0584H77.8752V14.0562H76.0558V5.99567C76.0558 5.47817 76.4677 5.0257 76.9852 5.0257H82.5896V6.59309H77.8752V8.53168H81.4083V9.12911C81.4083 9.6466 80.9572 10.0584 80.4383 10.0584Z" fill="#121212"/>
<path d="M84.3154 5.0257H85.2312V12.3967H89.6408V14.0562H83.3861V5.99567C83.3861 5.47817 83.7979 5.0257 84.3154 5.0257Z" fill="#121212"/>
<path d="M90.3317 9.5396C90.3317 6.77735 91.9655 4.87805 94.6478 4.87805C97.3301 4.87805 98.9775 6.80309 98.9775 9.5396C98.9775 12.2761 97.3979 14.1876 94.6478 14.1876C91.8978 14.1876 90.3317 12.3018 90.3317 9.5396ZM92.1782 9.5396C92.1782 11.3061 92.9612 12.6338 94.6478 12.6338C96.3344 12.6338 97.131 11.359 97.131 9.5396C97.131 7.72023 96.3344 6.48474 94.6478 6.48474C92.9612 6.48474 92.1782 7.78661 92.1782 9.5396Z" fill="#121212"/>
<path d="M110.704 5.0257L108.141 14.0562H106.374L104.98 7.13768L103.573 14.0562H101.793L99.2159 5.0257H101.141L102.668 11.3874L103.995 5.0257H105.961L107.263 11.3874L108.631 5.73014C108.791 5.26548 109.096 5.0257 109.56 5.0257H110.702H110.704Z" fill="#121212"/>
<path d="M111.302 5.99432C111.302 5.3698 111.608 5.0379 112.231 5.02435H117.835V6.59175H113.121V8.53034H116.64V9.12776C116.654 9.75228 116.334 10.0571 115.684 10.0571H113.121V12.394H117.835V14.0535H111.302V5.99297V5.99432Z" fill="#121212"/>
<path d="M124.648 9.72653C125.033 9.85929 125.326 10.072 125.511 10.3511C125.671 10.6559 125.751 11.1083 125.79 11.6922L125.87 13.4587C125.884 13.7378 125.989 13.937 126.163 14.0562H124.131C124.039 13.8828 123.998 13.6972 123.984 13.5116C123.945 13.3788 123.918 12.8613 123.904 11.9848C123.838 10.8956 123.639 10.5502 122.55 10.5502H120.584V14.0562H118.738V5.99567C118.738 5.47817 119.149 5.0257 119.667 5.0257H123.093C124.965 5.0257 126.002 5.74234 126.002 7.60235C126.002 8.74437 125.51 9.4881 124.647 9.72653H124.648ZM122.868 6.59174H120.584V8.96925H122.762C123.639 8.96925 124.131 8.65089 124.131 7.7744C124.131 6.95074 123.693 6.59309 122.869 6.59309L122.868 6.59174Z" fill="#121212"/>
<path d="M132.562 11.5459C132.562 11.1084 132.297 10.8157 131.739 10.6559C131.208 10.496 130.597 10.3375 129.946 10.1641C128.18 9.71301 127.303 8.88935 127.303 7.6945C127.343 5.7952 128.472 4.86587 130.704 4.87942C132.828 4.87942 133.931 5.80875 134.036 7.68095H133C132.615 7.68095 132.35 7.49536 132.176 7.14991C131.871 6.63241 131.327 6.38043 130.542 6.38043C129.586 6.39398 129.108 6.75162 129.069 7.44253C129.069 8.01421 129.64 8.42469 130.822 8.69021C131.499 8.85007 132.216 9.04921 132.973 9.31473C133.982 9.66018 134.46 10.4039 134.407 11.5459C134.302 13.3125 133.106 14.189 130.822 14.189C128.538 14.189 127.222 13.1933 127.169 11.2276H128.962C129.028 12.184 129.639 12.6622 130.82 12.6622C132.001 12.6622 132.573 12.291 132.56 11.5473L132.562 11.5459Z" fill="#121212"/>
<path d="M28.7458 23.7574L29.9203 23.6842C29.9461 23.8752 29.9975 24.0202 30.0761 24.1204C30.2035 24.2816 30.385 24.3629 30.6207 24.3629C30.7968 24.3629 30.9323 24.3209 31.0285 24.2383C31.1247 24.1556 31.1721 24.0595 31.1721 23.9511C31.1721 23.8427 31.126 23.7546 31.0353 23.6734C30.9445 23.5921 30.7332 23.5149 30.4026 23.4417C29.8607 23.3198 29.4746 23.1586 29.2443 22.9567C29.0113 22.7549 28.8962 22.4975 28.8962 22.1859C28.8962 21.98 28.9558 21.7863 29.075 21.6047C29.1942 21.4232 29.373 21.2782 29.6115 21.1739C29.8499 21.0696 30.1777 21.0168 30.5936 21.0168C31.1043 21.0168 31.4931 21.1116 31.7614 21.3013C32.0296 21.4909 32.1881 21.793 32.2396 22.2076L31.0759 22.2753C31.0447 22.0951 30.9797 21.9651 30.8808 21.8824C30.7819 21.7998 30.6451 21.7592 30.4703 21.7592C30.3267 21.7592 30.2184 21.789 30.1466 21.8499C30.0748 21.9109 30.0382 21.9854 30.0382 22.0721C30.0382 22.1358 30.068 22.1927 30.1276 22.2441C30.1859 22.297 30.324 22.3458 30.5421 22.3918C31.0813 22.5083 31.4688 22.6262 31.7018 22.744C31.9348 22.8619 32.1055 23.0109 32.2111 23.187C32.3168 23.3631 32.371 23.5609 32.371 23.7777C32.371 24.0337 32.3005 24.2694 32.1583 24.4862C32.0161 24.7029 31.8183 24.8669 31.5649 24.978C31.3116 25.089 30.9905 25.1459 30.6031 25.1459C29.923 25.1459 29.453 25.0145 29.1915 24.7531C28.93 24.4916 28.7824 24.1597 28.7472 23.756L28.7458 23.7574Z" fill="#121212"/>
<path d="M38.0147 24.4198H36.6139L36.4189 25.0796H35.159L36.66 21.0845H38.0066L39.5076 25.0796H38.2152L38.0147 24.4198ZM37.7587 23.5555L37.317 22.1195L36.8808 23.5555H37.7587Z" fill="#121212"/>
<path d="M42.4527 21.0845H44.0757L44.7015 23.5149L45.3234 21.0845H46.9463V25.0796H45.9357V22.0328L45.1567 25.0796H44.2423L43.4647 22.0328V25.0796H42.4541V21.0845H42.4527Z" fill="#121212"/>
<path d="M50.2978 21.0845H53.606V21.938H51.5347V22.5734H53.4557V23.3875H51.5347V24.1746H53.6656V25.0796H50.2978V21.0845Z" fill="#121212"/>
<path d="M61.3414 21.0845H63.1757C63.5374 21.0845 63.8287 21.1333 64.0522 21.2322C64.2757 21.3311 64.4586 21.4706 64.6036 21.6549C64.7485 21.8391 64.8542 22.0518 64.9192 22.2957C64.9842 22.5395 65.0167 22.7969 65.0167 23.0692C65.0167 23.4959 64.968 23.8278 64.8704 24.0622C64.7729 24.2966 64.6388 24.4943 64.4654 24.6528C64.292 24.8113 64.1077 24.917 63.9099 24.9698C63.639 25.043 63.3938 25.0782 63.1743 25.0782H61.3401V21.0832L61.3414 21.0845ZM62.5769 21.9895V24.1719H62.879C63.1364 24.1719 63.3206 24.1435 63.429 24.0866C63.5374 24.0297 63.6227 23.9294 63.6851 23.7872C63.7474 23.6449 63.7772 23.4133 63.7772 23.0936C63.7772 22.6709 63.7081 22.381 63.5699 22.2239C63.4317 22.0667 63.2028 21.9895 62.8831 21.9895H62.5756H62.5769Z" fill="#121212"/>
<path d="M70.4494 24.4198H69.0486L68.8535 25.0796H67.5937L69.0947 21.0845H70.4413L71.9423 25.0796H70.6499L70.4494 24.4198ZM70.1933 23.5555L69.7517 22.1195L69.3155 23.5555H70.1933Z" fill="#121212"/>
<path d="M74.0242 21.0845H75.3951L76.1998 22.4325L77.0059 21.0845H78.3701L76.8176 23.4065V25.0796H75.5807V23.4065L74.0242 21.0845Z" fill="#121212"/>
<path d="M85.7789 21.0845H87.6132C87.9749 21.0845 88.2662 21.1333 88.4897 21.2322C88.7132 21.3311 88.8961 21.4706 89.0411 21.6549C89.186 21.8391 89.2917 22.0518 89.3567 22.2957C89.4217 22.5395 89.4543 22.7969 89.4543 23.0692C89.4543 23.4959 89.4055 23.8278 89.308 24.0622C89.2104 24.2979 89.0763 24.4943 88.9029 24.6528C88.7295 24.8113 88.5453 24.917 88.3475 24.9698C88.0765 25.043 87.8313 25.0782 87.6119 25.0782H85.7776V21.0832L85.7789 21.0845ZM87.0131 21.9895V24.1719H87.3152C87.5726 24.1719 87.7568 24.1435 87.8652 24.0866C87.9736 24.0297 88.0589 23.9294 88.1212 23.7872C88.1835 23.6449 88.2133 23.4133 88.2133 23.0936C88.2133 22.6709 88.1443 22.381 88.0061 22.2239C87.8679 22.0667 87.639 21.9895 87.3192 21.9895H87.0117H87.0131Z" fill="#121212"/>
<path d="M92.6677 21.0845H95.9759V21.938H93.9045V22.5734H95.8255V23.3875H93.9045V24.1746H96.0355V25.0796H92.6677V21.0845Z" fill="#121212"/>
<path d="M99.2678 21.0845H100.502V24.096H102.428V25.0796H99.2678V21.0845Z" fill="#121212"/>
<path d="M105.606 21.0845H106.843V25.0796H105.606V21.0845Z" fill="#121212"/>
<path d="M109.904 21.0845H111.195L112.094 23.9592L112.982 21.0845H114.235L112.751 25.0796H111.413L109.904 21.0845Z" fill="#121212"/>
<path d="M117.2 21.0845H120.508V21.938H118.437V22.5734H120.358V23.3875H118.437V24.1746H120.568V25.0796H117.2V21.0845Z" fill="#121212"/>
<path d="M123.817 25.0796V21.0845H125.875C126.257 21.0845 126.548 21.117 126.75 21.1821C126.952 21.2471 127.114 21.369 127.237 21.5465C127.361 21.724 127.423 21.9394 127.423 22.194C127.423 22.4162 127.376 22.6072 127.281 22.7671C127.186 22.9283 127.056 23.0583 126.891 23.1586C126.785 23.2223 126.64 23.2751 126.457 23.3171C126.603 23.3659 126.712 23.4146 126.778 23.4648C126.823 23.4973 126.889 23.5677 126.976 23.6747C127.063 23.7818 127.12 23.8644 127.149 23.9226L127.747 25.0809H126.351L125.692 23.8603C125.608 23.7018 125.533 23.6002 125.468 23.5528C125.379 23.4905 125.278 23.4607 125.166 23.4607H125.058V25.0823H123.818L123.817 25.0796ZM125.058 22.7034H125.578C125.635 22.7034 125.743 22.6858 125.904 22.6492C125.986 22.633 126.053 22.591 126.105 22.5232C126.156 22.4555 126.182 22.3783 126.182 22.2916C126.182 22.1629 126.141 22.064 126.059 21.9949C125.976 21.9258 125.823 21.8919 125.598 21.8919H125.056V22.7034H125.058Z" fill="#121212"/>
<path d="M130.066 21.0845H131.437L132.241 22.4325L133.047 21.0845H134.412L132.859 23.4065V25.0796H131.622V23.4065L130.066 21.0845Z" fill="#121212"/>
<path d="M4.63789 6.35632C5.42633 6.63674 6.28928 6.25065 6.61305 5.49202C6.68756 5.22514 6.83793 4.39741 6.02375 3.9761C5.04565 3.46944 4.26534 4.35135 4.27753 5.00026C4.28973 5.64916 4.58505 5.88488 4.97792 6.15989C4.97792 6.15989 3.89686 5.73451 4.13123 4.66429C4.36559 3.59407 5.26918 3.45995 5.79887 3.63607C6.1809 3.76205 6.59679 4.04519 6.7282 4.67919C6.6564 4.10615 6.27166 3.59407 5.69185 3.38815C4.87225 3.09689 3.97137 3.52633 3.68011 4.34593C3.38885 5.16553 3.81829 6.06641 4.63789 6.35767V6.35632ZM4.70969 5.81173C4.75033 5.8483 4.79097 5.88082 4.83026 5.91062C4.94676 5.98377 5.13913 6.05422 5.3762 5.94584C5.77178 5.76431 5.75417 5.3281 5.5469 5.05851C5.5469 5.05851 5.71082 5.47711 5.34233 5.70064C4.97385 5.92417 4.30598 5.47711 4.81264 4.92846C5.32066 4.3798 6.46132 5.19127 5.69998 5.96752C5.69998 5.96752 6.21748 5.64103 6.06981 5.00568C5.92215 4.36896 4.77878 3.99235 4.41707 4.99077C4.41707 4.99077 4.4821 4.25517 5.25699 4.15221C6.03188 4.04925 6.4261 4.72661 6.38817 5.20346C6.35159 5.65864 5.68643 6.5514 4.83026 5.91197C4.75304 5.86321 4.70969 5.81308 4.70969 5.81308V5.81173ZM4.138 5.90791C4.138 5.90791 3.16532 4.87156 4.11903 3.86908C4.11903 3.86908 3.37259 4.81331 4.138 5.90791Z" fill="#FFD300"/>
<path d="M5.02533 5.60582C5.17842 5.66001 5.34776 5.58008 5.40194 5.427C5.41007 5.40397 5.41549 5.37958 5.4182 5.3552C5.4182 5.35791 5.41685 5.36062 5.41549 5.36333C5.36808 5.4988 5.21906 5.56924 5.08359 5.52183C4.94812 5.47441 4.87767 5.32539 4.92509 5.18992C4.94947 5.11948 5.0023 5.06664 5.06598 5.03955C4.96708 5.05987 4.88174 5.12896 4.84651 5.23056C4.79232 5.38365 4.87225 5.55298 5.02533 5.60717V5.60582Z" fill="#FFD300"/>
<path d="M9.90285 11.7806C10.2808 9.57645 8.87191 7.47936 6.72606 6.97135C5.9891 6.89819 3.74028 6.87787 3.00332 9.21204C2.11599 12.0203 4.79289 13.6731 6.49576 13.3439C8.19998 13.0161 8.68632 12.1314 9.23091 10.9718C9.23091 10.9718 8.60097 14.0131 5.67616 13.8831C2.74999 13.7517 1.98593 11.4365 2.20811 9.95848C2.36796 8.89503 2.92204 7.66902 4.53143 7.03773C3.05615 7.48614 1.88162 8.73247 1.60391 10.3568C1.21104 12.6489 2.74999 14.8273 5.04351 15.2202C7.33567 15.613 9.51404 14.0741 9.90691 11.7806H9.90285ZM8.4357 11.8388C8.51427 11.7155 8.58201 11.5936 8.64297 11.4758C8.78386 11.1371 8.8814 10.5979 8.48582 10.0208C7.82743 9.06031 6.68677 9.30686 6.07038 9.97609C6.07038 9.97609 7.09589 9.35292 7.85453 10.2226C8.61181 11.0924 7.73802 13.0553 6.0636 11.9689C4.38783 10.881 6.00535 7.50646 8.39641 9.15785C8.39641 9.15785 7.30316 7.94403 5.69512 8.62274C4.08709 9.30145 3.61294 12.485 6.41041 12.9835C6.41041 12.9835 4.44202 13.1475 3.8175 11.1547C3.19298 9.16191 4.79695 7.81398 6.07038 7.69747C7.28691 7.58639 9.94078 8.93297 8.64568 11.4771C8.5522 11.7033 8.43841 11.8402 8.43841 11.8402L8.4357 11.8388ZM8.94913 13.3005C8.94913 13.3005 6.66239 16.3337 3.58855 14.2786C3.58855 14.2786 6.41718 15.8149 8.94913 13.3005Z" fill="#FFD300"/>
<path d="M7.75022 11.1005C7.82337 10.671 7.53617 10.2633 7.10673 10.1901C7.04035 10.1793 6.97532 10.1766 6.91165 10.1806C6.91978 10.1806 6.92655 10.182 6.93468 10.1833C7.31264 10.2484 7.56597 10.6074 7.50095 10.9853C7.43592 11.3633 7.07693 11.6166 6.69896 11.5516C6.50253 11.5177 6.33861 11.4039 6.23701 11.2495C6.33319 11.5001 6.55536 11.6938 6.8385 11.7426C7.26794 11.8158 7.67571 11.5286 7.74886 11.0991L7.75022 11.1005Z" fill="#FFD300"/>
<path d="M20.4194 11.557C20.7364 9.70782 19.5551 7.94806 17.7534 7.52132C17.1356 7.46036 15.2485 7.44275 14.6294 9.40166C13.8843 11.7575 16.1304 13.1447 17.5597 12.8697C18.9889 12.5947 19.398 11.8523 19.8545 10.8796C19.8545 10.8796 19.3262 13.4319 16.8715 13.3222C14.4167 13.2124 13.7746 11.2684 13.9602 10.0289C14.0943 9.13613 14.559 8.10791 15.9096 7.57687C14.6714 7.95347 13.6865 8.99931 13.4522 10.3621C13.1216 12.2858 14.414 14.1133 16.3377 14.4425C18.2614 14.7731 20.0889 13.4807 20.4181 11.557H20.4194ZM19.188 11.6058C19.253 11.5015 19.3113 11.4012 19.3614 11.301C19.4793 11.0165 19.5606 10.564 19.2287 10.0804C18.6759 9.27431 17.7195 9.48023 17.202 10.0438C17.202 10.0438 18.0636 9.52087 18.699 10.2511C19.3343 10.9812 18.6014 12.6286 17.1952 11.7155C15.7891 10.8038 17.1465 7.97109 19.1528 9.35695C19.1528 9.35695 18.2343 8.33821 16.885 8.90854C15.5357 9.47888 15.1374 12.1504 17.4851 12.5676C17.4851 12.5676 15.8338 12.7044 15.3095 11.0327C14.7852 9.35966 16.1304 8.22848 17.1993 8.1323C18.2208 8.03882 20.4479 9.16865 19.3614 11.3037C19.2828 11.4933 19.188 11.6085 19.188 11.6085V11.6058ZM19.6188 12.8318C19.6188 12.8318 17.6992 15.3773 15.1212 13.6527C15.1212 13.6527 17.4946 14.9411 19.6188 12.8318Z" fill="#FFD300"/>
<path d="M18.6136 10.9867C18.6759 10.6263 18.4334 10.2849 18.0731 10.2226C18.0175 10.2131 17.9634 10.2104 17.9092 10.2145C17.9159 10.2145 17.9227 10.2158 17.9281 10.2172C18.2451 10.2714 18.4578 10.5721 18.4036 10.8891C18.3494 11.2061 18.0487 11.4188 17.7317 11.3646C17.5664 11.3362 17.4296 11.2413 17.3443 11.1113C17.4255 11.3213 17.6111 11.4838 17.8496 11.5245C18.2099 11.5868 18.5513 11.3443 18.6136 10.9839V10.9867Z" fill="#FFD300"/>
<path d="M15.6725 2.83809C14.6917 2.31111 13.4779 2.64573 12.8995 3.57912C12.7491 3.91509 12.3833 4.97447 13.3695 5.69111C14.5549 6.55406 15.7592 5.55022 15.873 4.69404C15.9868 3.83787 15.6468 3.46803 15.1849 3.02775C15.1849 3.02775 16.5219 3.80536 15.9977 5.16684C15.4734 6.52832 14.2596 6.5229 13.5958 6.18558C13.1189 5.94173 12.6272 5.48655 12.5825 4.62766C12.5608 5.39578 12.9645 6.14629 13.6879 6.53509C14.708 7.08239 15.9801 6.69901 16.5274 5.67892C17.0747 4.65882 16.6913 3.38675 15.6712 2.83945L15.6725 2.83809ZM15.468 3.53983C15.4219 3.48294 15.3759 3.43146 15.3298 3.3854C15.1916 3.26483 14.9532 3.13478 14.6172 3.22961C14.0591 3.38946 13.9954 3.96657 14.2149 4.3635C14.2149 4.3635 14.0821 3.78097 14.6132 3.56015C15.1442 3.33934 15.9326 4.06275 15.155 4.68185C14.3774 5.30095 13.039 4.0045 14.1959 3.13613C14.1959 3.13613 13.4495 3.46126 13.5159 4.32827C13.5822 5.19529 15.0114 5.92141 15.6874 4.67914C15.6874 4.67914 15.4544 5.63421 14.414 5.61525C13.3736 5.59628 12.9902 4.62495 13.1365 4.00585C13.2761 3.41385 14.3314 2.37343 15.3284 3.38675C15.4206 3.46668 15.4666 3.54119 15.4666 3.54119L15.468 3.53983ZM16.2388 3.52764C16.2388 3.52764 17.3104 5.08691 15.8541 6.21403C15.8541 6.21403 17.0259 5.12078 16.2388 3.52764Z" fill="#FFD300"/>
<path d="M15.0115 3.74575C14.8205 3.6428 14.5821 3.7146 14.4805 3.90561C14.4642 3.93541 14.4534 3.96522 14.4452 3.99637C14.4466 3.99231 14.4479 3.9896 14.4506 3.98554C14.5414 3.81755 14.75 3.75388 14.918 3.84465C15.086 3.93541 15.1497 4.14404 15.0589 4.31202C15.0115 4.40008 14.9329 4.45833 14.8435 4.48271C14.9763 4.47594 15.1036 4.40279 15.1714 4.2768C15.2743 4.08579 15.2025 3.84736 15.0115 3.74575Z" fill="#FFD300"/>
<path d="M12.4195 6.70285C11.5836 6.25444 10.5513 6.53893 10.0582 7.33414C9.92953 7.61998 9.6193 8.52222 10.4592 9.13319C11.4698 9.86744 12.494 9.01398 12.5915 8.28379C12.6891 7.55496 12.3992 7.23931 12.0049 6.86541C12.0049 6.86541 13.1443 7.52786 12.6972 8.68614C12.2515 9.84577 11.2165 9.8417 10.6516 9.55315C10.2452 9.34588 9.82657 8.95843 9.78864 8.22554C9.77103 8.87986 10.1138 9.51928 10.7302 9.84983C11.5999 10.3159 12.6823 9.98937 13.1483 9.121C13.6143 8.25128 13.2879 7.16886 12.4195 6.70285ZM12.2447 7.30027C12.2054 7.25286 12.1662 7.20815 12.1269 7.16886C12.009 7.06726 11.8058 6.95482 11.52 7.0361C11.0445 7.17157 10.9903 7.66333 11.1772 8.00201C11.1772 8.00201 11.0648 7.50483 11.5159 7.31788C11.967 7.13093 12.6403 7.74597 11.9765 8.27295C11.314 8.80129 10.1734 7.69585 11.1596 6.95618C11.1596 6.95618 10.5242 7.23254 10.5811 7.97085C10.638 8.70917 11.8546 9.32827 12.4317 8.27024C12.4317 8.27024 12.2325 9.08307 11.3466 9.06681C10.4606 9.05055 10.1341 8.22418 10.2587 7.69585C10.3779 7.1919 11.2761 6.30456 12.1255 7.16751C12.2041 7.23525 12.2434 7.29892 12.2434 7.29892L12.2447 7.30027ZM12.9018 7.29079C12.9018 7.29079 13.8148 8.6184 12.5739 9.57889C12.5739 9.57889 13.5723 8.64821 12.9018 7.29079Z" fill="#121212"/>
<path d="M11.856 7.4762C11.6935 7.3895 11.4902 7.45046 11.4035 7.61303C11.39 7.63741 11.3805 7.66451 11.3737 7.69025C11.3751 7.68754 11.3765 7.68483 11.3778 7.68076C11.455 7.53716 11.6325 7.48433 11.7761 7.56019C11.9197 7.63741 11.9725 7.81488 11.8967 7.95848C11.856 8.03299 11.7896 8.08311 11.7138 8.10343C11.8276 8.09801 11.9359 8.0357 11.9928 7.92732C12.0795 7.76475 12.0186 7.56155 11.856 7.47485V7.4762Z" fill="#121212"/>
<path d="M10.587 5.76566C10.7536 4.79704 10.1345 3.87449 9.19026 3.65096C8.86649 3.61845 7.87755 3.61032 7.55377 4.63583C7.16362 5.86997 8.34086 6.59745 9.09001 6.4525C9.83917 6.30754 10.0532 5.91874 10.293 5.40937C10.293 5.40937 10.0166 6.74647 8.72966 6.68957C7.44269 6.63132 7.10672 5.61393 7.20426 4.96367C7.2747 4.4963 7.51855 3.95713 8.22571 3.67941C7.5768 3.8772 7.06066 4.4245 6.93874 5.13843C6.76533 6.14633 7.44269 7.10411 8.45059 7.27616C9.45849 7.44956 10.4163 6.77221 10.5883 5.76431L10.587 5.76566ZM9.94212 5.7914C9.97599 5.73721 10.0071 5.68438 10.0329 5.63154C10.0952 5.48253 10.1372 5.24545 9.9638 4.99212C9.67389 4.56945 9.17265 4.67783 8.90171 4.97316C8.90171 4.97316 9.35283 4.69951 9.68608 5.08153C10.0193 5.46356 9.63461 6.32651 8.899 5.84965C8.16339 5.3728 8.87326 3.88804 9.92451 4.61416C9.92451 4.61416 9.44359 4.0804 8.73643 4.37844C8.02928 4.67648 7.82065 6.07724 9.05073 6.29535C9.05073 6.29535 8.18507 6.36715 7.91142 5.49065C7.63641 4.61416 8.34221 4.0208 8.90171 3.97067C9.43682 3.9219 10.6032 4.51391 10.0342 5.6329C9.9936 5.73179 9.94348 5.79275 9.94348 5.79275L9.94212 5.7914ZM10.1684 6.43353C10.1684 6.43353 9.16317 7.76792 7.81117 6.86433C7.81117 6.86433 9.05479 7.53897 10.1684 6.43353Z" fill="#FFD300"/>
<path d="M9.6411 5.46756C9.67361 5.27925 9.54627 5.10043 9.35797 5.06792C9.32952 5.0625 9.29972 5.06115 9.27262 5.06385C9.27533 5.06385 9.2794 5.06385 9.28346 5.06521C9.45009 5.09366 9.56117 5.2508 9.53273 5.41743C9.50428 5.58406 9.34713 5.69515 9.1805 5.6667C9.0938 5.6518 9.022 5.60167 8.97729 5.53394C9.01929 5.64367 9.11683 5.72902 9.24146 5.75069C9.42977 5.7832 9.60859 5.65586 9.6411 5.46756Z" fill="#FFD300"/>
<path d="M10.5745 4.07226C11.363 4.35269 12.2259 3.96659 12.5497 3.20796C12.6242 2.94108 12.7746 2.11335 11.9604 1.69204C10.9823 1.18538 10.202 2.06729 10.2142 2.7162C10.2264 3.3651 10.5217 3.60082 10.9146 3.87583C10.9146 3.87583 9.83352 3.45045 10.0679 2.38023C10.3022 1.31001 11.2058 1.1759 11.7355 1.35201C12.1176 1.478 12.5335 1.76113 12.6649 2.39513C12.5931 1.82209 12.2083 1.31001 11.6285 1.1041C10.8089 0.812835 9.90803 1.24228 9.61677 2.06188C9.3255 2.88147 9.75495 3.78235 10.5745 4.07362V4.07226ZM10.6463 3.52902C10.687 3.5656 10.7276 3.59811 10.7669 3.62792C10.8834 3.70107 11.0758 3.77152 11.3129 3.66314C11.7084 3.48161 11.6908 3.04539 11.4836 2.77581C11.4836 2.77581 11.6475 3.19441 11.279 3.41794C10.9105 3.64146 10.2426 3.19441 10.7493 2.64575C11.2573 2.0971 12.398 2.90857 11.6366 3.68482C11.6366 3.68482 12.1541 3.35833 12.0065 2.72297C11.8588 2.08626 10.7154 1.70965 10.3537 2.70807C10.3537 2.70807 10.4188 1.97246 11.1936 1.86951C11.9685 1.76655 12.3628 2.4439 12.3248 2.92076C12.2882 3.37594 11.6231 4.26869 10.7669 3.62927C10.6897 3.5805 10.6463 3.53038 10.6463 3.53038V3.52902ZM10.0747 3.62521C10.0747 3.62521 9.10198 2.58886 10.0557 1.58637C10.0557 1.58637 9.30925 2.5306 10.0747 3.62521Z" fill="#FFD300"/>
<path d="M10.962 3.3231C11.1151 3.37729 11.2844 3.29736 11.3386 3.14428C11.3467 3.12125 11.3521 3.09687 11.3549 3.07248C11.3549 3.07519 11.3535 3.0779 11.3521 3.08061C11.3047 3.21608 11.1557 3.28653 11.0202 3.23911C10.8848 3.1917 10.8143 3.04268 10.8617 2.90721C10.8861 2.83676 10.939 2.78393 11.0026 2.75684C10.9037 2.77716 10.8184 2.84625 10.7832 2.94785C10.729 3.10093 10.8089 3.27027 10.962 3.32446V3.3231Z" fill="#FFD300"/>
<path d="M17.3456 7.25581C17.855 7.43734 18.4131 7.18807 18.6217 6.69767C18.6692 6.52562 18.7667 5.99051 18.2411 5.71822C17.6084 5.39173 17.1045 5.96071 17.1126 6.38067C17.1207 6.80063 17.3117 6.95236 17.5651 7.12982C17.5651 7.12982 16.866 6.85482 17.0178 6.16256C17.1695 5.4703 17.752 5.3836 18.0961 5.4974C18.3427 5.57868 18.6123 5.76157 18.6962 6.17069C18.6502 5.80085 18.4023 5.4703 18.0257 5.33619C17.496 5.14788 16.9135 5.4256 16.7252 5.95529C16.5368 6.48498 16.8146 7.06751 17.3443 7.25581H17.3456ZM17.3917 6.90359C17.4174 6.92662 17.4445 6.94829 17.4702 6.96726C17.5447 7.01467 17.6694 7.06073 17.8238 6.99029C18.0799 6.87243 18.0677 6.59065 17.9336 6.41725C17.9336 6.41725 18.0392 6.68683 17.8008 6.83179C17.5624 6.97674 17.1302 6.68683 17.4594 6.33325C17.7872 5.97832 18.5242 6.50259 18.0324 7.00519C18.0324 7.00519 18.3671 6.79521 18.2709 6.38338C18.1747 5.9729 17.4364 5.7277 17.2034 6.37389C17.2034 6.37389 17.2454 5.89839 17.7466 5.83201C18.2478 5.76563 18.5025 6.2032 18.4768 6.51072C18.4524 6.80469 18.023 7.3818 17.4702 6.96861C17.4201 6.93745 17.3917 6.90494 17.3917 6.90494V6.90359ZM17.0232 6.9659C17.0232 6.9659 16.3946 6.29668 17.011 5.64913C17.011 5.64913 16.5287 6.2601 17.0232 6.9659Z" fill="#FFD300"/>
<path d="M17.5964 6.77069C17.6953 6.80591 17.8051 6.75443 17.8403 6.65419C17.8457 6.63928 17.8484 6.62303 17.8511 6.60813C17.8511 6.60948 17.8511 6.61219 17.8498 6.61354C17.8186 6.70025 17.7224 6.74631 17.6357 6.71515C17.549 6.68399 17.5029 6.5878 17.5341 6.5011C17.5504 6.45504 17.5842 6.42118 17.6249 6.40356C17.5612 6.41576 17.5057 6.46182 17.4826 6.52684C17.4474 6.62574 17.4989 6.73547 17.5991 6.77069H17.5964Z" fill="#FFD300"/>
<path d="M13.5727 12.8765C13.7394 11.9079 13.1203 10.9853 12.176 10.7618C11.8523 10.7293 10.8633 10.7212 10.5396 11.7467C10.1494 12.9808 11.3266 13.7083 12.0758 13.5633C12.8249 13.4184 13.039 13.0296 13.2788 12.5202C13.2788 12.5202 13.0024 13.8573 11.7154 13.8004C10.4285 13.7422 10.0925 12.7248 10.19 12.0745C10.2605 11.6071 10.5043 11.068 11.2115 10.7903C10.5626 10.988 10.0464 11.5353 9.92452 12.2493C9.75111 13.2572 10.4285 14.215 11.4364 14.387C12.4443 14.5604 13.402 13.883 13.5741 12.8751L13.5727 12.8765ZM12.9279 12.9022C12.9618 12.8481 12.9929 12.7952 13.0187 12.7424C13.081 12.5934 13.123 12.3563 12.9496 12.103C12.6597 11.6803 12.1584 11.7887 11.8875 12.084C11.8875 12.084 12.3386 11.8103 12.6719 12.1924C13.0051 12.5744 12.6204 13.4373 11.8848 12.9605C11.1492 12.4836 11.859 10.9989 12.9103 11.725C12.9103 11.725 12.4294 11.1912 11.7222 11.4893C11.0151 11.7873 10.8064 13.1881 12.0365 13.4062C12.0365 13.4062 11.1708 13.478 10.8972 12.6015C10.6222 11.725 11.328 11.1316 11.8875 11.0815C12.4226 11.0327 13.589 11.6248 13.02 12.7437C12.9794 12.8426 12.9293 12.9036 12.9293 12.9036L12.9279 12.9022ZM13.1541 13.5444C13.1541 13.5444 12.1489 14.8788 10.7969 13.9752C10.7969 13.9752 12.0406 14.6498 13.1541 13.5444Z" fill="#FFD300"/>
<path d="M12.6272 12.5771C12.6597 12.3888 12.5323 12.21 12.344 12.1775C12.3156 12.1721 12.2858 12.1707 12.2587 12.1734C12.2614 12.1734 12.2654 12.1734 12.2695 12.1748C12.4361 12.2032 12.5472 12.3604 12.5188 12.527C12.4903 12.6936 12.3332 12.8047 12.1666 12.7763C12.0799 12.7614 12.0081 12.7112 11.9633 12.6435C12.0053 12.7532 12.1029 12.8386 12.2275 12.8602C12.4158 12.8928 12.5946 12.7654 12.6272 12.5771Z" fill="#FFD300"/>
<path d="M1.69061 6.55001L3.01687 6.99435C4.02883 5.06525 -6.86646e-05 5.81847 -6.86646e-05 5.81847C-6.86646e-05 5.81847 1.46302 9.13208 2.77573 7.37909L1.69061 6.55136V6.55001Z" fill="#121212"/>
<path d="M7.6161 1.83292L7.8762 3.20659C10.0546 3.14834 7.4305 0 7.4305 0C7.4305 0 5.25349 2.89366 7.42373 3.18492L7.61745 1.83427L7.6161 1.83292Z" fill="#121212"/>
<path d="M20.0591 6.72748L19.398 7.96704C21.1401 9.29059 21.0656 5.17499 21.0656 5.17499C21.0656 5.17499 17.5407 6.0718 19.0566 7.66494L20.0577 6.72748H20.0591Z" fill="#121212"/>
<path d="M13.6269 1.60127L13.696 2.45068C15.0209 2.55499 13.8274 0.476868 13.8274 0.476868C13.8274 0.476868 12.1246 2.09303 13.4224 2.40733L13.6256 1.59992L13.6269 1.60127Z" fill="#121212"/>
<path d="M14.4533 7.64869L14.1783 8.12961C14.8489 8.67284 14.9749 7.1217 14.9749 7.1217C14.9749 7.1217 13.4684 7.36013 14.0469 8.00633L14.4533 7.64869Z" fill="#121212"/>
<path d="M11.3835 5.23325L11.817 5.70468C12.6502 5.15467 10.9839 4.47461 10.9839 4.47461C10.9839 4.47461 10.7211 6.21812 11.6355 5.80629L11.3835 5.2346V5.23325Z" fill="#121212"/>
<path d="M15.4477 14.8354C15.0711 14.6065 14.1485 13.8627 13.8613 13.5173C13.4942 14.3328 12.68 14.8815 11.7507 14.8815C11.6193 14.8815 11.4865 14.8706 11.3564 14.8476C10.6073 14.7189 10.0031 14.242 9.68203 13.6107C9.08325 14.5387 8.16882 15.231 7.10131 15.5507L8.62807 19.6406L15.4477 14.8354Z" fill="#121212"/>
<path d="M12.1544 30L13.2056 27.0183L11.0232 27.5805L12.1544 30Z" fill="#FFD300"/>
<path d="M17.4716 14.9248C17.2968 14.9478 17.1194 14.96 16.9392 14.96C16.713 14.96 16.484 14.9411 16.2578 14.9018C16.1535 14.8842 16.0492 14.8611 15.9476 14.8354L7.80982 20.7067L10.6696 26.8286L13.5416 26.0591L17.4689 14.9248H17.4716Z" fill="#FFD300"/>
<path d="M11.1925 26.8259L11.416 27.3041L12.8073 26.9465L13.0227 26.3355L11.1925 26.8259Z" fill="#121212"/>
<path d="M6.80192 11.2671C7.04059 11.2671 7.23407 11.0736 7.23407 10.8349C7.23407 10.5963 7.04059 10.4028 6.80192 10.4028C6.56325 10.4028 6.36977 10.5963 6.36977 10.8349C6.36977 11.0736 6.56325 11.2671 6.80192 11.2671Z" fill="#121212"/>
<path d="M12.218 12.6475C12.3213 12.6475 12.405 12.5638 12.405 12.4606C12.405 12.3573 12.3213 12.2736 12.218 12.2736C12.1148 12.2736 12.0311 12.3573 12.0311 12.4606C12.0311 12.5638 12.1148 12.6475 12.218 12.6475Z" fill="#121212"/>
<path d="M11.6233 8.06184C11.746 8.06184 11.8455 7.96237 11.8455 7.83966C11.8455 7.71696 11.746 7.61749 11.6233 7.61749C11.5006 7.61749 11.4012 7.71696 11.4012 7.83966C11.4012 7.96237 11.5006 8.06184 11.6233 8.06184Z" fill="#FFD300"/>
<path d="M17.8496 11.1967C18.0815 11.1967 18.2695 11.0086 18.2695 10.7767C18.2695 10.5448 18.0815 10.3568 17.8496 10.3568C17.6176 10.3568 17.4296 10.5448 17.4296 10.7767C17.4296 11.0086 17.6176 11.1967 17.8496 11.1967Z" fill="#121212"/>
<path d="M14.7107 4.38654C14.8334 4.38654 14.9329 4.28707 14.9329 4.16437C14.9329 4.04167 14.8334 3.9422 14.7107 3.9422C14.588 3.9422 14.4885 4.04167 14.4885 4.16437C14.4885 4.28707 14.588 4.38654 14.7107 4.38654Z" fill="#121212"/>
<path d="M17.6829 6.66513C17.7375 6.66513 17.7818 6.62086 17.7818 6.56624C17.7818 6.51162 17.7375 6.46735 17.6829 6.46735C17.6283 6.46735 17.584 6.51162 17.584 6.56624C17.584 6.62086 17.6283 6.66513 17.6829 6.66513Z" fill="#FFD300"/>
<path d="M9.21872 5.58142C9.33169 5.58142 9.42328 5.48984 9.42328 5.37686C9.42328 5.26389 9.33169 5.1723 9.21872 5.1723C9.10574 5.1723 9.01416 5.26389 9.01416 5.37686C9.01416 5.48984 9.10574 5.58142 9.21872 5.58142Z" fill="#121212"/>
<path d="M5.15866 5.42291C5.2447 5.42291 5.31445 5.35316 5.31445 5.26712C5.31445 5.18108 5.2447 5.11133 5.15866 5.11133C5.07262 5.11133 5.00286 5.18108 5.00286 5.26712C5.00286 5.35316 5.07262 5.42291 5.15866 5.42291Z" fill="#FFD300"/>
<path d="M11.0963 3.17812C11.2003 3.17812 11.2846 3.09382 11.2846 2.98982C11.2846 2.88582 11.2003 2.80151 11.0963 2.80151C10.9923 2.80151 10.908 2.88582 10.908 2.98982C10.908 3.09382 10.9923 3.17812 11.0963 3.17812Z" fill="#FFD300"/>
</g>
<defs>
<clipPath id="clip0_1_4214">
<rect width="134.413" height="30" fill="white"/>
</clipPath>
</defs>
</svg>
