<svg width="28" height="21" viewBox="0 0 28 21" fill="none" xmlns="http://www.w3.org/2000/svg">
<path fill-rule="evenodd" clip-rule="evenodd" d="M1.16667 0.416504C0.752454 0.416504 0.416668 0.75229 0.416668 1.1665C0.416668 1.58072 0.752454 1.9165 1.16667 1.9165H15.0833V2.49984V9.1665V16.4165H11.1674C10.8256 14.8903 9.46265 13.7498 7.83333 13.7498C6.20402 13.7498 4.84107 14.8903 4.49924 16.4165H3.25V11.8332C3.25 11.419 2.91421 11.0832 2.5 11.0832C2.08579 11.0832 1.75 11.419 1.75 11.8332V17.1665C1.75 17.5807 2.08579 17.9165 2.5 17.9165H4.49924C4.84107 19.4427 6.20402 20.5832 7.83333 20.5832C9.46265 20.5832 10.8256 19.4427 11.1674 17.9165H15.8333H17.8326C18.1744 19.4427 19.5373 20.5832 21.1667 20.5832C22.796 20.5832 24.1589 19.4427 24.5008 17.9165H26.5C26.9142 17.9165 27.25 17.5807 27.25 17.1665V9.1788C27.2512 9.10795 27.2424 9.03647 27.2231 8.96655C27.2037 8.8964 27.1744 8.83037 27.1368 8.77007L23.1431 2.11397C23.0076 1.88806 22.7634 1.74984 22.5 1.74984H16.5833V1.1665C16.5833 0.75229 16.2475 0.416504 15.8333 0.416504H1.16667ZM24.5008 16.4165H25.75V9.9165H16.5833V16.4165H17.8326C18.1744 14.8903 19.5373 13.7498 21.1667 13.7498C22.796 13.7498 24.1589 14.8903 24.5008 16.4165ZM5.91667 17.1672C5.91706 18.2254 6.77503 19.0832 7.83333 19.0832C8.89188 19.0832 9.75 18.225 9.75 17.1665C9.75 16.108 8.89188 15.2498 7.83333 15.2498C6.77479 15.2498 5.91667 16.108 5.91667 17.1665C5.91667 17.1667 5.91667 17.167 5.91667 17.1672ZM16.5833 8.4165V3.24984H22.0754L25.1754 8.4165H16.5833ZM21.1667 15.2498C20.1081 15.2498 19.25 16.108 19.25 17.1665C19.25 18.225 20.1081 19.0832 21.1667 19.0832C22.2252 19.0832 23.0833 18.225 23.0833 17.1665C23.0833 16.108 22.2252 15.2498 21.1667 15.2498Z" fill="#121212"/>
</svg>
